<?xml version="1.0" encoding="UTF-8" standalone="no"?>
<!-- Created with Inkscape (http://www.inkscape.org/) -->

<svg
   width="297mm"
   height="297mm"
   viewBox="0 0 297 297"
   version="1.1"
   id="svg1"
   inkscape:export-filename="bitmap.png"
   inkscape:export-xdpi="96"
   inkscape:export-ydpi="96"
   inkscape:version="1.3.2 (091e20e, 2023-11-25, custom)"
   sodipodi:docname="Logo fondo verde.svg"
   xmlns:inkscape="http://www.inkscape.org/namespaces/inkscape"
   xmlns:sodipodi="http://sodipodi.sourceforge.net/DTD/sodipodi-0.dtd"
   xmlns:xlink="http://www.w3.org/1999/xlink"
   xmlns="http://www.w3.org/2000/svg"
   xmlns:svg="http://www.w3.org/2000/svg">
  <sodipodi:namedview
     id="namedview1"
     pagecolor="#ffffff"
     bordercolor="#000000"
     borderopacity="0.25"
     inkscape:showpageshadow="2"
     inkscape:pageopacity="0.0"
     inkscape:pagecheckerboard="0"
     inkscape:deskcolor="#d1d1d1"
     inkscape:document-units="mm"
     inkscape:zoom="0.73890575"
     inkscape:cx="577.88155"
     inkscape:cy="474.35008"
     inkscape:window-width="1350"
     inkscape:window-height="1237"
     inkscape:window-x="855"
     inkscape:window-y="81"
     inkscape:window-maximized="0"
     inkscape:current-layer="layer2"
     inkscape:export-bgcolor="#ffffff00" />
  <defs
     id="defs1">
    <color-profile
       name="Adobe-RGB-1998"
       xlink:href="../../../../../../../../../WINDOWS/system32/spool/drivers/color/AdobeRGB1998.icc"
       id="color-profile2" />
  </defs>
  <g
     inkscape:groupmode="layer"
     id="layer2"
     inkscape:label="Fondo">
    <rect
       style="fill:#008000;stroke:#0e8700;stroke-width:0;stroke-linecap:round;stroke-linejoin:round"
       id="rect1"
       width="298.63416"
       height="298.63416"
       x="-0.71614903"
       y="-0.71614903" />
  </g>
  <g
     inkscape:label="Capa 1"
     inkscape:groupmode="layer"
     id="layer1">
    <path
       style="fill:#000000;stroke-width:1.51094"
       d="M 140.83332,273.49445 C 56.558018,265.7955 24.883688,159.66838 91.141566,106.99858 l 3.11849,-2.47894 0.11121,5.45523 0.1112,5.45523 -4.0581,3.89506 C 51.896838,156.30482 57.538308,224.73493 101.22025,250.27748 l 1.23508,0.7222 V 137.04247 c 0,-62.676448 0.11816,-113.957188 0.26257,-113.957188 0.14445,0 5.9011,3.09362 12.79265,6.87471 l 12.53008,6.87472 V 149.63343 262.43216 l 3.29812,0.68807 c 1.81394,0.37843 3.61292,0.77636 3.9977,0.88431 0.66473,0.18646 0.69959,-4.11983 0.69959,-86.41433 0,-50.91836 0.14777,-86.555668 0.35846,-86.477318 0.19716,0.0733 5.8639,3.18124 12.59278,6.90657 l 12.23431,6.773308 v 79.70399 c 0,75.71683 0.035,79.6942 0.69959,79.50778 0.38478,-0.10789 2.18376,-0.50588 3.99772,-0.88431 l 3.2981,-0.68807 V 210.7197 c 0,-28.44185 0.0598,-51.71245 0.13312,-51.71245 0.0733,0 5.78495,3.12794 12.6927,6.95096 l 12.55957,6.95094 0.19988,39.04629 0.19989,39.04628 2.3822,-1.66878 c 43.2947,-30.32879 47.83851,-93.16048 9.40486,-130.05002 l -4.01407,-3.85282 0.1112,-5.45523 0.11121,-5.45523 3.13977,2.49586 c 71.99374,57.22924 25.87145,174.80827 -65.30408,166.47895 z"
       id="path1" />
  </g>
</svg>
