<?xml version="1.0" encoding="UTF-8" standalone="no"?>
<!-- Created with Inkscape (http://www.inkscape.org/) -->

<svg
   width="210mm"
   height="297mm"
   viewBox="0 0 210 297"
   version="1.1"
   id="svg1"
   xml:space="preserve"
   inkscape:version="1.3.2 (091e20e, 2023-11-25, custom)"
   sodipodi:docname="LOGO LLEMY Vector.svg"
   inkscape:export-filename="LOGO LLEMY Vector.png"
   inkscape:export-xdpi="96"
   inkscape:export-ydpi="96"
   xmlns:inkscape="http://www.inkscape.org/namespaces/inkscape"
   xmlns:sodipodi="http://sodipodi.sourceforge.net/DTD/sodipodi-0.dtd"
   xmlns="http://www.w3.org/2000/svg"
   xmlns:svg="http://www.w3.org/2000/svg"><sodipodi:namedview
     id="namedview1"
     pagecolor="#ffffff"
     bordercolor="#000000"
     borderopacity="0.25"
     inkscape:showpageshadow="2"
     inkscape:pageopacity="0.0"
     inkscape:pagecheckerboard="0"
     inkscape:deskcolor="#d1d1d1"
     inkscape:document-units="mm"
     inkscape:zoom="1.0449705"
     inkscape:cx="730.16415"
     inkscape:cy="561.25986"
     inkscape:window-width="2560"
     inkscape:window-height="1369"
     inkscape:window-x="-8"
     inkscape:window-y="-8"
     inkscape:window-maximized="1"
     inkscape:current-layer="layer1"
     inkscape:export-bgcolor="#ffffff00" /><defs
     id="defs1" /><g
     inkscape:label="Capa 1"
     inkscape:groupmode="layer"
     id="layer1"><path
       style="fill:#000000;stroke-width:1.51094"
       d="M 96.55416,265.31018 C 12.27885,257.61123 -19.395471,151.48411 46.862398,98.814313 l 3.118497,-2.478943 0.111205,5.45523 0.111206,5.45523 -4.058108,3.89506 C 7.6176768,148.12055 13.259144,216.55066 56.941087,242.09321 l 1.235076,0.7222 V 128.8582 c 0,-62.676454 0.118155,-113.957192 0.262571,-113.957192 0.144447,0 5.901112,3.093621 12.792662,6.874713 L 83.76147,28.650436 V 141.44916 254.24789 l 3.298118,0.68807 c 1.813948,0.37843 3.612923,0.77636 3.9977,0.88431 0.664739,0.18646 0.699597,-4.11983 0.699597,-86.41433 0,-50.91836 0.14777,-86.555666 0.358456,-86.477324 0.197163,0.07328 5.863899,3.181247 12.592779,6.906569 l 12.23431,6.773308 v 79.703997 c 0,75.71683 0.035,79.6942 0.69959,79.50778 0.38478,-0.10789 2.18376,-0.50588 3.99772,-0.88431 l 3.2981,-0.68807 v -51.71246 c 0,-28.44185 0.0598,-51.71245 0.13312,-51.71245 0.0733,0 5.78495,3.12794 12.6927,6.95096 l 12.55957,6.95094 0.19988,39.04629 0.19989,39.04628 2.3822,-1.66878 c 43.2947,-30.32879 47.83851,-93.16048 9.40486,-130.05002 l -4.01407,-3.85282 0.1112,-5.45523 0.11121,-5.45523 3.13977,2.495853 C 233.85191,156.06047 187.72962,273.6395 96.55409,265.31018 Z"
       id="path1" /></g></svg>
